<?xml version="1.0" encoding="UTF-8"?>
<svg
  xmlns="http://www.w3.org/2000/svg"
  width="24"
  height="24"
  viewBox="0 0 516.375 516.375"
  fill="none"
>
  <g fill="#C8D0DA">
    <rect x="267.75" y="286.875" width="76.5" height="38.25" />
    <rect x="267.75" y="344.25" width="76.5" height="38.25" />
    <rect x="267.75" y="401.625" width="76.5" height="38.25" />
    <path d="M344.25,133.875h95.625L325.125,0v114.75C325.125,126.225,334.688,133.875,344.25,133.875z" />
    <rect x="267.75" y="229.5" width="76.5" height="38.25" />
    <rect x="172.125" y="401.625" width="76.5" height="38.25" />
    <path d="M306,114.75V0H114.75C93.712,0,76.5,17.212,76.5,38.25v439.875c0,21.037,17.212,38.25,38.25,38.25h286.875c21.037,0,38.25-17.213,38.25-38.25V153H344.25C323.213,153,306,135.788,306,114.75z M363.375,459H153V191.25h210.375V459z" />
    <rect x="172.125" y="344.25" width="76.5" height="38.25" />
    <rect x="172.125" y="286.875" width="76.5" height="38.25" />
    <rect x="172.125" y="229.5" width="76.5" height="38.25" />
  </g>
</svg>
